# xmcd
#
# Track frame offsets:
#	150
#	21570
#	37412
#	54432
#	73624
#	91191
#	109934
#	118427
#	136188
#	157583
#
# Disc length: 2218 seconds
#
# Revision: 1
# Processed by: cddbd v1.5.2PL0 Copyright (c) Steve Scherf et al.
# Submitted via: audiograbber 1.83.01
#
DISCID=8a08a80a
DTITLE=Neila Benbey - Algerian Soul
DYEAR=2010
DGENRE=Soul
TTITLE0=Saharaui
TTITLE1=Chalet laayani
TTITLE2=Bakhta
TTITLE3=Le Coeur Serré
TTITLE4=Lama Bada Yatathanna
TTITLE5=Sidi H'bibi
TTITLE6=Alalai i Lali
TTITLE7=Ya Zina
TTITLE8=Zwit Rwit
TTITLE9=Tadzayrit
EXTD=
EXTT0=
EXTT1=
EXTT2=
EXTT3=
EXTT4=
EXTT5=
EXTT6=
EXTT7=
EXTT8=
EXTT9=
PLAYORDER=
